# xmcd CD database file
#
# Track frame offsets:
#	225
#	11926
#	24244
#	36991
#	49456
#	63101
#	76145
#	90853
#	106890
#	119383
#	132841
#	146242
#	159659
#	173230
#	186822
#	201906
#	215693
#	228029
#	241501
#	256132
#	271895
#	286958
#	300856
#	316006
#
# Disc length: 4406 seconds
#
# Revision: 1
# Processed by: cddbd v1.5.2PL0 Copyright (c) Steve Scherf et al.
# Submitted via: CDex 1.70beta2
#
DISCID=3c113318
DTITLE=Paul Whiteman - Volume 1 - If I Had a Talking Picture of You - Dutton Vocalion
DYEAR=1925
DGENRE=Jazz
TTITLE0=Sweet Child (I'm Wild About You)
TTITLE1=I Never Knew How Wonderful You Were
TTITLE2=I'm in Love with You, That's Why
TTITLE3=No Fooling
TTITLE4=Louisiana (with Bing Crosby)
TTITLE5=Changes (with Bing Crosby)
TTITLE6=Ol' Man River (from the film 'Show Boat') (with Bing Crosby)
TTITLE7=There Ain't No Sweet Man that's Worth the Salt of My Tears
TTITLE8=Who Do You Love (from 'Vanities')
TTITLE9=I'll Always Remember You
TTITLE10=Make Believe (from 'Show Boat') (with Bing Crosby)
TTITLE11=You Took Advantage Of Me (from 'Present Arms') (with Bing Crosby)
TTITLE12=Do I Hear You Saying (I Love You) (From 'Present Arms")
TTITLE13=If I Had a Talking Picture of You (From Film 'Sunny Side Up') (with Bing Crosby)
TTITLE14=I'm a Dreamer ... Aren't We All? (from the film 'Sunny Side Up') (with Bing Crosby)
TTITLE15=My Lucky Star (from 'Follow Through')
TTITLE16=Button Up Your Overcoat (from 'Follow Through')
TTITLE17=Blue Night
TTITLE18=Sittin' on a Rainbow
TTITLE19=Old New England Moon
TTITLE20=Love in Bloom (from the film 'She Loves Me Not')
TTITLE21=Afterglow
TTITLE22=True
TTITLE23=Japanese Sandman
EXTD=YEAR: 1925
EXTT0=
EXTT1=
EXTT2=
EXTT3=
EXTT4=
EXTT5=
EXTT6=
EXTT7=
EXTT8=
EXTT9=
EXTT10=
EXTT11=
EXTT12=
EXTT13=
EXTT14=
EXTT15=
EXTT16=
EXTT17=
EXTT18=
EXTT19=
EXTT20=
EXTT21=
EXTT22=
EXTT23=
PLAYORDER=
